<?xml version="1.0" encoding="utf-8"?>
<!-- Generator: Adobe Illustrator 23.0.1, SVG Export Plug-In . SVG Version: 6.00 Build 0)  -->
<svg version="1.1" id="Lager_1" xmlns="http://www.w3.org/2000/svg" xmlns:xlink="http://www.w3.org/1999/xlink" x="0px" y="0px"
	 viewBox="0 0 1920 1080" style="enable-background:new 0 0 1920 1080;" xml:space="preserve">
<style type="text/css">
	.st0{fill:none;stroke:#646666;stroke-width:15;stroke-miterlimit:10;}
	.st1{fill:none;stroke:#FFFFFF;stroke-width:259;stroke-miterlimit:10;}
	.st2{fill:#666666;}
	.st3{fill:#CCCCCC;}
	.st4{fill:#333333;}
	.st5{fill:#FFFFFF;}
	.st6{fill:none;stroke:#0D0E0D;stroke-linecap:round;stroke-linejoin:round;}
	.st7{fill:none;stroke:#CCCCCC;stroke-linecap:round;stroke-linejoin:round;}
	.st8{fill:#F0E68C;stroke:#000000;stroke-width:3;stroke-miterlimit:10;}
	.st9{font-family:'Alegreya-Regular';}
	.st10{font-size:198.9271px;}
</style>
<ellipse class="st0" cx="957.68" cy="519.11" rx="205.65" ry="191.35"/>
<ellipse class="st0" cx="957.68" cy="530.33" rx="205.65" ry="191.35"/>
<line class="st1" x1="803.52" y1="722.05" x2="1116.48" y2="323.1"/>
<path class="st2" d="M937.43,770.18c10.24-14.81,15.62-29.6,16.37-44.38c0.62-14.89-3.66-25.6-12.82-31.89
	c-9.18-6.53-20.58-6.59-34.36-0.53c-1.03,0.44-2.18,1-3.32,1.57l48.04-81.4c10.1-16.7,17.38-34.48,21.5-53.21l-41.34,22.58
	c-1.46,13.29-5.57,26.08-12.45,38.26l-51.51,108.39l-8.77,18.5c-2.32,6.83-3.67,13.82-4.08,20.74c-0.73,15.02,3.4,25.38,12.58,31.91
	c9.39,6.27,20.82,6.57,34.36,0.53C915.4,795.18,927.3,784.87,937.43,770.18L937.43,770.18z M935.76,733.5
	c-0.44,9.53-3.97,19.07-10.59,28.61c-6.49,9.65-14.17,16.3-23.11,20.33c-8.86,3.66-16.34,3.65-22.25-0.52
	c-6.01-4.04-8.69-10.96-8.14-20.62c0.32-9.64,3.96-19.31,10.47-28.72c6.49-9.65,14.27-16.43,23.13-20.09
	c8.95-4.02,16.32-3.89,22.23,0.29C933.51,716.82,936.19,723.73,935.76,733.5L935.76,733.5z M936.66,589.76l25.61-14.23
	L936.66,589.76z M942.48,592.75l16.19-8.62L942.48,592.75z"/>
<path class="st2" d="M815.71,625.31c0.05-0.84,0.23-1.56,0.42-2.29c2.53-14.8-0.35-25.86-8.53-33.29
	c-4.85-4.37-10.61-6.65-17.3-7.08c-1.91-0.09-3.92-0.05-6.05,0.12c-3.3,0.26-6.81,1.01-10.64,2.14
	c-14.4,4.21-27.37,12.94-39.4,26.23c-8.4,9.56-14.63,19.43-18.35,29.69l-0.87,2.56c-1.18,3.18-1.99,6.45-2.44,9.81
	c-2.65,14.69,0.1,25.64,8.41,33.19c8.42,7.42,19.59,9.04,33.98,4.83c11.62-3.28,22.51-9.83,32.47-19.16
	c32.35-23.66,58.99-46.04,80.27-67.06c21.15-21.12,37.68-32.98,49.72-35.46c5.14,0.43,8.94,1.92,11.17,4.71l4.08-52.68
	c-15.01,8.53-29.92,19.79-44.87,33.66C861.62,577.56,837.44,600.94,815.71,625.31L815.71,625.31z M735.21,645.24
	c1.62-9.63,6.01-18.87,13.52-27.65c7.74-8.8,16.07-14.67,25.11-17.51c9.39-2.99,16.7-2.02,22.18,2.66
	c5.47,4.68,7.46,11.89,6.07,21.49c-1.52,9.5-5.92,18.51-13.54,27.42c-7.51,8.78-15.84,14.65-25.22,17.64
	c-9.15,2.97-16.47,2-22.07-2.79C735.9,661.7,733.8,654.62,735.21,645.24z M913.23,563.32l4.17-22.65L913.23,563.32z M920,558.76
	l3.92-21.32L920,558.76z"/>
<path class="st3" d="M932.65,521.55l23.13-21.63l96.26-172.56c7.09-12.66,15.51-18.9,24.93-18.33
	c-12.17-2.26-21.35,1.78-27.43,12.23L932.65,521.55z"/>
<path class="st4" d="M1016.32,464.68l-5.28,3.86l-0.24,0.02l-21.26,51.65l-13.58,32.88l5.21-4.8L1016.32,464.68z"/>
<path class="st2" d="M1010.81,468.56l0.24-0.02l65.93-159.51c-9.43-0.57-17.84,5.67-24.93,18.33l-96.26,172.56l33.76,20.28
	L1010.81,468.56L1010.81,468.56z"/>
<path class="st2" d="M989.54,520.2l-33.76-20.28l-23.13,21.63l-4.08,52.68c1.84,2.23,2.77,5.01,2.93,8.68l41.34-22.58l3.12-7.25
	L989.54,520.2z M963.27,538.05c-0.29,2.4-1.58,4.16-3.48,5.61c-2.03,1.35-4.14,1.75-6.66,1.35c-2.29-0.42-4.05-1.7-5.51-3.61
	c-1.35-2.03-1.75-4.14-1.46-6.54c0.52-2.42,1.81-4.18,3.84-5.52c1.91-1.45,4.01-1.86,6.3-1.44c2.52,0.4,4.29,1.68,5.74,3.59
	S963.79,535.63,963.27,538.05L963.27,538.05z"/>
<path class="st3" d="M959.79,543.66c1.91-1.45,3.19-3.22,3.48-5.61c0.52-2.42,0.23-4.65-1.22-6.55c-1.45-1.91-3.22-3.19-5.74-3.59
	c-2.29-0.42-4.39-0.01-6.3,1.44c-2.03,1.35-3.32,3.11-3.84,5.52c-0.29,2.4,0.11,4.5,1.46,6.54c1.45,1.91,3.22,3.19,5.51,3.61
	C955.65,545.41,957.75,545.01,959.79,543.66L959.79,543.66z M960.3,531.98c0.02,0.24,0.16,0.58,0.29,0.69l-0.24,0.02
	c-2.05-0.43-3.92-0.05-5.85,1.17c-1.45,1.18-2.63,2.82-3.06,4.87c-0.14,1.2-0.05,2.38,0.15,3.43c-1.11-0.51-2-1.27-2.8-2.39
	c-1.07-1.58-1.44-3.21-1.11-5.14c0.45-1.82,1.39-3.43,2.86-4.38c1.45-1.18,3.32-1.57,5.25-1.24
	C957.61,529.46,959.12,530.53,960.3,531.98z"/>
<path class="st5" d="M960.59,532.67c-0.13-0.11-0.27-0.45-0.29-0.69c-1.18-1.45-2.69-2.52-4.51-2.97c-1.93-0.32-3.8,0.06-5.25,1.24
	c-1.47,0.95-2.41,2.56-2.86,4.38c-0.32,1.93,0.04,3.56,1.11,5.14c0.8,1.13,1.69,1.89,2.8,2.39c-0.2-1.05-0.29-2.23-0.15-3.43
	c0.43-2.05,1.61-3.69,3.06-4.87c1.92-1.22,3.79-1.6,5.85-1.17C960.36,532.69,960.59,532.67,960.59,532.67z"/>
<path class="st2" d="M981.16,548.29l-5.21,4.8l155.21-138.45c10.56-9.25,17.2-17.02,19.77-23.63c3.41-8.1,4.27-16.84,2.71-26.1
	l-137.32,99.77L981.16,548.29L981.16,548.29z"/>
<path class="st6" d="M972.84,560.34l-41.34,22.58"/>
<path class="st6" d="M935.76,733.5c0.43-9.77-2.25-16.69-8.27-20.73c-5.91-4.17-13.28-4.31-22.23-0.29
	c-8.86,3.66-16.64,10.44-23.13,20.09c-6.51,9.41-10.15,19.08-10.47,28.72c-0.55,9.66,2.12,16.58,8.14,20.62
	c5.91,4.17,13.39,4.18,22.25,0.52c8.95-4.02,16.62-10.68,23.11-20.33C931.79,752.58,935.32,743.04,935.76,733.5"/>
<path class="st6" d="M858.76,748.06l8.77-18.5l51.51-108.39c6.89-12.17,11-24.96,12.45-38.26"/>
<path class="st6" d="M815.71,625.31c0.05-0.84,0.23-1.56,0.42-2.29c2.53-14.8-0.35-25.86-8.53-33.29
	c-4.85-4.37-10.61-6.65-17.3-7.08c-1.91-0.09-3.92-0.05-6.05,0.12c-3.3,0.26-6.81,1.01-10.64,2.14
	c-14.4,4.21-27.37,12.94-39.4,26.23c-8.4,9.56-14.63,19.43-18.35,29.69l-0.87,2.56c-1.18,3.18-1.99,6.45-2.44,9.81
	c-2.65,14.69,0.1,25.64,8.41,33.19c8.42,7.42,19.59,9.04,33.98,4.83c11.62-3.28,22.51-9.83,32.47-19.16"/>
<path class="st6" d="M735.21,645.25c-1.41,9.37,0.69,16.45,6.05,21.26c5.6,4.79,12.92,5.76,22.07,2.79
	c9.39-2.99,17.71-8.86,25.22-17.64c7.62-8.91,12.02-17.92,13.54-27.42c1.39-9.61-0.6-16.81-6.07-21.49s-12.79-5.65-22.18-2.66
	c-9.04,2.84-17.37,8.72-25.11,17.51C741.22,626.37,736.84,635.62,735.21,645.25"/>
<path class="st6" d="M989.54,520.2l-33.76-20.28"/>
<path class="st6" d="M928.57,574.24c1.84,2.23,2.77,5.01,2.93,8.68"/>
<path class="st6" d="M787.41,672.05c32.35-23.66,58.99-46.04,80.27-67.06c21.15-21.12,37.68-32.98,49.72-35.46
	c5.14,0.43,8.94,1.92,11.17,4.71"/>
<path class="st6" d="M975.96,553.09"/>
<path class="st6" d="M975.96,553.09l-3.12,7.25"/>
<path class="st6" d="M962.04,531.49c-1.45-1.91-3.22-3.19-5.74-3.59c-2.29-0.42-4.39-0.01-6.3,1.44c-2.03,1.35-3.32,3.11-3.84,5.52
	c-0.29,2.4,0.11,4.5,1.46,6.54c1.45,1.91,3.22,3.19,5.51,3.61c2.52,0.4,4.63,0,6.66-1.35c1.91-1.45,3.19-3.22,3.48-5.61
	C963.79,535.63,963.5,533.4,962.04,531.49"/>
<path class="st6" d="M972.84,560.34c-4.12,18.73-11.4,36.51-21.5,53.21l-48.04,81.4"/>
<path class="st6" d="M867.53,729.56c-3.68,6.11-6.65,12.16-8.77,18.5c-2.32,6.83-3.67,13.82-4.08,20.74
	c-0.73,15.02,3.4,25.38,12.58,31.91c9.39,6.27,20.82,6.57,34.36,0.53c13.78-6.06,25.68-16.37,35.81-31.05
	c10.24-14.81,15.62-29.6,16.37-44.38c0.62-14.89-3.66-25.6-12.82-31.89c-9.18-6.53-20.58-6.59-34.36-0.53
	c-1.03,0.44-2.18,1-3.32,1.57"/>
<path class="st6" d="M932.65,521.55c-15.01,8.53-29.92,19.79-44.87,33.66c-26.16,22.35-50.34,45.72-72.07,70.1"/>
<path class="st6" d="M932.65,521.55l-4.08,52.68"/>
<path class="st6" d="M955.78,499.92l96.26-172.56c7.09-12.66,15.51-18.9,24.93-18.33"/>
<path class="st6" d="M1076.98,309.03l-65.93,159.51"/>
<path class="st6" d="M975.96,553.09l155.21-138.45c10.56-9.25,17.2-17.02,19.77-23.63c3.41-8.1,4.27-16.84,2.71-26.1l-137.32,99.77"
	/>
<path class="st6" d="M932.65,521.55l23.13-21.63"/>
<path class="st6" d="M932.65,521.55l116.9-200.29c6.07-10.45,15.26-14.49,27.43-12.23"/>
<path class="st7" d="M958.67,584.12l-16.19,8.62"/>
<path class="st7" d="M923.92,537.43L920,558.76"/>
<path class="st7" d="M917.4,540.67l-4.17,22.65"/>
<path class="st7" d="M962.27,575.53l-25.61,14.23"/>
<text transform="matrix(1 0 0 1 781.2909 598.3735)" class="st8 st9 st10">V H</text>
</svg>
