<?xml version="1.0" encoding="utf-8"?>
<!-- Generator: Adobe Illustrator 23.0.2, SVG Export Plug-In . SVG Version: 6.00 Build 0)  -->
<svg version="1.1" id="Lager_1" xmlns="http://www.w3.org/2000/svg" xmlns:xlink="http://www.w3.org/1999/xlink" x="0px" y="0px"
	 viewBox="0 0 500 300" style="enable-background:new 0 0 500 300;" xml:space="preserve">
<style type="text/css">
	.st0{opacity:0.6;}
	.st1{filter:url(#Adobe_OpacityMaskFilter);}
	.st2{mask:url(#SVGID_1_);}
	.st3{fill:#BDB1AA;}
	.st4{fill:#42210B;}
	.st5{fill:#8E7A6D;}
	.st6{fill:#A19085;}
	.st7{fill:#D0C8C2;}
	.st8{fill:none;stroke:#FFFFFF;stroke-linecap:square;stroke-linejoin:bevel;stroke-miterlimit:70;}
</style>
<circle class="st0" cx="251.5" cy="147.5" r="51.5"/>
<defs>
	<filter id="Adobe_OpacityMaskFilter" filterUnits="userSpaceOnUse" x="223.34" y="109.78" width="57.33" height="88.21">
		<feFlood  style="flood-color:white;flood-opacity:1" result="back"/>
		<feBlend  in="SourceGraphic" in2="back" mode="normal"/>
	</filter>
</defs>
<mask maskUnits="userSpaceOnUse" x="223.34" y="109.78" width="57.33" height="88.21" id="SVGID_1_">
	<g class="st1">
	</g>
</mask>
<g class="st2">
	<g>
		<g>
			<path class="st3" d="M252.01,139.88c-7.54-11.03-17.53-20.31-28.66-27.51v52.72c11.96,7.08,21.35,18.11,28.66,29.83
				L252.01,139.88z"/>
			<path class="st3" d="M252.01,194.92c7.2-11.84,16.94-22.41,28.67-29.83v-52.6c-11.36,7.42-21.23,16.36-28.67,27.38L252.01,194.92
				z"/>
			<path class="st4" d="M223.34,168.15c11.96,7.09,21.35,18.11,28.66,29.83c7.2-11.84,16.94-22.4,28.67-29.83v-7.08
				c-11.36,7.43-21.23,16.37-28.67,27.4c-7.54-11.03-17.53-20.32-28.66-27.51V168.15z"/>
			<path class="st5" d="M223.34,151.1c11.96,7.08,21.35,18.11,28.66,29.82c7.2-11.84,16.94-22.39,28.67-29.82v-7.08
				c-11.36,7.42-21.23,16.36-28.67,27.38c-7.54-11.02-17.53-20.31-28.66-27.5V151.1z"/>
			<path class="st6" d="M223.34,134.03c11.96,7.08,21.35,18.11,28.66,29.82c7.2-11.84,16.94-22.39,28.67-29.82v-7.08
				c-11.36,7.42-21.23,16.36-28.67,27.38c-7.54-11.02-17.53-20.31-28.66-27.51V134.03z"/>
			<path class="st7" d="M223.34,116.97c11.96,7.07,21.35,18.1,28.66,29.82c7.2-11.84,16.94-22.39,28.67-29.82v-7.08
				c-11.36,7.42-21.23,16.36-28.67,27.39c-7.54-11.03-17.53-20.31-28.66-27.51V116.97z"/>
		</g>
	</g>
</g>
<path class="st8" d="M280.5,109.5v52c0,0-17,9-28,27c0,0-18-23-29-27v-52c0,0,16.74,10.87,28.37,27.43
	C251.87,136.93,271.5,114.5,280.5,109.5z"/>
</svg>
